<?xml version="1.0" encoding="UTF-8" standalone="no"?>
<!-- Created with Inkscape (http://www.inkscape.org/) -->

<svg
   width="16"
   height="16"
   viewBox="0 0 16 16"
   version="1.1"
   id="svg1"
   inkscape:version="1.4.2 (ebf0e940, 2025-05-08)"
   inkscape:export-filename="icon.png"
   inkscape:export-xdpi="3072"
   inkscape:export-ydpi="3072"
   xml:space="preserve"
   sodipodi:docname="winter-irc.svg"
   xmlns:inkscape="http://www.inkscape.org/namespaces/inkscape"
   xmlns:sodipodi="http://sodipodi.sourceforge.net/DTD/sodipodi-0.dtd"
   xmlns:xlink="http://www.w3.org/1999/xlink"
   xmlns="http://www.w3.org/2000/svg"
   xmlns:svg="http://www.w3.org/2000/svg"><sodipodi:namedview
     id="namedview1"
     pagecolor="#505050"
     bordercolor="#eeeeee"
     borderopacity="1"
     inkscape:showpageshadow="0"
     inkscape:pageopacity="0"
     inkscape:pagecheckerboard="true"
     inkscape:deskcolor="#505050"
     inkscape:document-units="px"
     inkscape:zoom="16.090173"
     inkscape:cx="1.3051445"
     inkscape:cy="2.4238397"
     inkscape:window-width="1440"
     inkscape:window-height="761"
     inkscape:window-x="0"
     inkscape:window-y="25"
     inkscape:window-maximized="1"
     inkscape:current-layer="layer1" /><defs
     id="defs1"><linearGradient
       id="linearGradient56"
       inkscape:collect="always"><stop
         style="stop-color:#000c1f;stop-opacity:1;"
         offset="0"
         id="stop56" /><stop
         style="stop-color:#001b45;stop-opacity:1;"
         offset="1"
         id="stop57" /></linearGradient><linearGradient
       id="linearGradient54"
       inkscape:collect="always"><stop
         style="stop-color:#001d47;stop-opacity:1;"
         offset="0"
         id="stop54" /><stop
         style="stop-color:#002c6e;stop-opacity:0.99826688;"
         offset="1"
         id="stop55" /></linearGradient><inkscape:path-effect
       effect="fillet_chamfer"
       id="path-effect54"
       is_visible="true"
       lpeversion="1"
       nodesatellites_param="F,0,0,1,0,0.4582083,0,1 @ F,0,0,1,0,0.4582083,0,1 @ F,0,0,1,0,0.4582083,0,1 @ F,0,0,1,0,0.4582083,0,1"
       radius="0.4"
       unit="px"
       method="auto"
       mode="F"
       chamfer_steps="1"
       flexible="false"
       use_knot_distance="true"
       apply_no_radius="true"
       apply_with_radius="true"
       only_selected="false"
       hide_knots="false" /><inkscape:path-effect
       effect="fillet_chamfer"
       id="path-effect53"
       is_visible="true"
       lpeversion="1"
       nodesatellites_param="F,0,0,1,0,0.4582083,0,1 @ F,0,0,1,0,0.4582083,0,1 @ F,0,0,1,0,0.4582083,0,1 @ F,0,0,1,0,0.4582083,0,1"
       radius="0.4"
       unit="px"
       method="auto"
       mode="F"
       chamfer_steps="1"
       flexible="false"
       use_knot_distance="true"
       apply_no_radius="true"
       apply_with_radius="true"
       only_selected="false"
       hide_knots="false" /><inkscape:path-effect
       effect="fillet_chamfer"
       id="path-effect52"
       is_visible="true"
       lpeversion="1"
       nodesatellites_param="F,0,0,1,0,0.44612643,0,1 @ F,0,0,1,0,0.44612643,0,1 @ F,0,0,1,0,0.44612643,0,1 @ F,0,0,1,0,0.44612643,0,1"
       radius="0.4"
       unit="px"
       method="auto"
       mode="F"
       chamfer_steps="1"
       flexible="false"
       use_knot_distance="true"
       apply_no_radius="true"
       apply_with_radius="true"
       only_selected="false"
       hide_knots="false" /><inkscape:path-effect
       effect="fillet_chamfer"
       id="path-effect51"
       is_visible="true"
       lpeversion="1"
       nodesatellites_param="F,0,0,1,0,0.4582083,0,1 @ F,0,0,1,0,0.4582083,0,1 @ F,0,0,1,0,0.4582083,0,1 @ F,0,0,1,0,0.4582083,0,1"
       radius="0.4"
       unit="px"
       method="auto"
       mode="F"
       chamfer_steps="1"
       flexible="false"
       use_knot_distance="true"
       apply_no_radius="true"
       apply_with_radius="true"
       only_selected="false"
       hide_knots="false" /><inkscape:path-effect
       effect="fillet_chamfer"
       id="path-effect50"
       is_visible="true"
       lpeversion="1"
       nodesatellites_param="F,0,0,1,0,0.4582083,0,1 @ F,0,0,1,0,0.4582083,0,1 @ F,0,0,1,0,0.4582083,0,1 @ F,0,0,1,0,0.4582083,0,1"
       radius="0.4"
       unit="px"
       method="auto"
       mode="F"
       chamfer_steps="1"
       flexible="false"
       use_knot_distance="true"
       apply_no_radius="true"
       apply_with_radius="true"
       only_selected="false"
       hide_knots="false" /><inkscape:path-effect
       effect="bspline"
       id="path-effect49"
       is_visible="true"
       lpeversion="1.3"
       weight="33.333333"
       steps="2"
       helper_size="0"
       apply_no_weight="true"
       apply_with_weight="true"
       only_selected="false"
       uniform="false" /><inkscape:path-effect
       effect="bspline"
       id="path-effect48"
       is_visible="true"
       lpeversion="1.3"
       weight="33.333333"
       steps="2"
       helper_size="0"
       apply_no_weight="true"
       apply_with_weight="true"
       only_selected="false"
       uniform="false" /><inkscape:path-effect
       effect="fillet_chamfer"
       id="path-effect47"
       is_visible="true"
       lpeversion="1"
       nodesatellites_param="F,0,0,1,0,0.44612643,0,1 @ F,0,0,1,0,0.44612643,0,1 @ F,0,0,1,0,0.44612643,0,1 @ F,0,0,1,0,0.44612643,0,1"
       radius="0.4"
       unit="px"
       method="auto"
       mode="F"
       chamfer_steps="1"
       flexible="false"
       use_knot_distance="true"
       apply_no_radius="true"
       apply_with_radius="true"
       only_selected="false"
       hide_knots="false" /><inkscape:path-effect
       effect="fillet_chamfer"
       id="path-effect46"
       is_visible="true"
       lpeversion="1"
       nodesatellites_param="F,0,0,1,0,0.22910415,0,1 @ F,0,0,1,0,0.22910415,0,1 @ F,0,0,1,0,0.22910415,0,1 @ F,0,0,1,0,0.22910415,0,1"
       radius="0.2"
       unit="px"
       method="auto"
       mode="F"
       chamfer_steps="1"
       flexible="false"
       use_knot_distance="true"
       apply_no_radius="true"
       apply_with_radius="true"
       only_selected="false"
       hide_knots="false" /><inkscape:path-effect
       effect="fillet_chamfer"
       id="path-effect45"
       is_visible="true"
       lpeversion="1"
       nodesatellites_param="F,0,0,1,0,0.22910415,0,1 @ F,0,0,1,0,0.22910415,0,1 @ F,0,0,1,0,0.22910415,0,1 @ F,0,0,1,0,0.22910415,0,1"
       radius="0.2"
       unit="px"
       method="auto"
       mode="F"
       chamfer_steps="1"
       flexible="false"
       use_knot_distance="true"
       apply_no_radius="true"
       apply_with_radius="true"
       only_selected="false"
       hide_knots="false" /><inkscape:path-effect
       effect="fillet_chamfer"
       id="path-effect44"
       is_visible="true"
       lpeversion="1"
       nodesatellites_param="F,0,0,1,0,0.22306322,0,1 @ F,0,0,1,0,0.22306322,0,1 @ F,0,0,1,0,0.22306322,0,1 @ F,0,0,1,0,0.22306322,0,1"
       radius="0.2"
       unit="px"
       method="auto"
       mode="F"
       chamfer_steps="1"
       flexible="false"
       use_knot_distance="true"
       apply_no_radius="true"
       apply_with_radius="true"
       only_selected="false"
       hide_knots="false" /><inkscape:path-effect
       effect="fillet_chamfer"
       id="path-effect43"
       is_visible="true"
       lpeversion="1"
       nodesatellites_param="F,0,0,1,0,0.22910415,0,1 @ F,0,0,1,0,0.22910415,0,1 @ F,0,0,1,0,0.22910415,0,1 @ F,0,0,1,0,0.22910415,0,1"
       radius="0.2"
       unit="px"
       method="auto"
       mode="F"
       chamfer_steps="1"
       flexible="false"
       use_knot_distance="true"
       apply_no_radius="true"
       apply_with_radius="true"
       only_selected="false"
       hide_knots="false" /><inkscape:path-effect
       effect="fillet_chamfer"
       id="path-effect42"
       is_visible="true"
       lpeversion="1"
       nodesatellites_param="F,0,0,1,0,0.22910415,0,1 @ F,0,0,1,0,0.22910415,0,1 @ F,0,0,1,0,0.22910415,0,1 @ F,0,0,1,0,0.22910415,0,1"
       radius="0.2"
       unit="px"
       method="auto"
       mode="F"
       chamfer_steps="1"
       flexible="false"
       use_knot_distance="true"
       apply_no_radius="true"
       apply_with_radius="true"
       only_selected="false"
       hide_knots="false" /><inkscape:path-effect
       effect="fillet_chamfer"
       id="path-effect41"
       is_visible="true"
       lpeversion="1"
       nodesatellites_param="F,0,0,1,0,0.22306322,0,5 @ F,0,0,1,0,0.22306322,0,5 @ F,0,0,1,0,0.22306322,0,5 @ F,0,0,1,0,0.22306322,0,5"
       radius="0.2"
       unit="px"
       method="auto"
       mode="F"
       chamfer_steps="6"
       flexible="false"
       use_knot_distance="true"
       apply_no_radius="true"
       apply_with_radius="true"
       only_selected="false"
       hide_knots="false" /><linearGradient
       inkscape:collect="always"
       xlink:href="#linearGradient54"
       id="linearGradient55"
       x1="2.3431458"
       y1="13.656855"
       x2="13.656855"
       y2="2.3431458"
       gradientUnits="userSpaceOnUse" /><linearGradient
       inkscape:collect="always"
       xlink:href="#linearGradient56"
       id="linearGradient57"
       x1="2.3431458"
       y1="13.656855"
       x2="13.656855"
       y2="2.3431458"
       gradientUnits="userSpaceOnUse" /></defs><g
     inkscape:label="Layer 1"
     inkscape:groupmode="layer"
     id="layer1"><g
       id="g14"
       inkscape:label="flake"
       inkscape:export-filename="ico256.png"
       inkscape:export-xdpi="1536"
       inkscape:export-ydpi="1536"><g
         id="g12"
         style="fill:#aaccff"
         inkscape:label="small"><rect
           style="fill:#aaccff;stroke-width:10.7458;stroke-linecap:round;stroke-linejoin:round"
           id="rect7"
           width="0.73188704"
           height="3.3802106"
           x="-18.477226"
           y="9.2384853"
           transform="matrix(-1,0,-0.50003415,0.86600568,0,0)"
           inkscape:transform-center-x="-4.6430942"
           inkscape:transform-center-y="1.4613677" /><rect
           style="fill:#aaccff;stroke-width:10.7458;stroke-linecap:round;stroke-linejoin:round"
           id="rect8"
           width="0.73183709"
           height="3.3804414"
           x="-15.093547"
           y="-3.3852751"
           transform="matrix(-0.50003415,-0.86600568,-1,0,0,0)"
           inkscape:transform-center-x="-1.0558502"
           inkscape:transform-center-y="4.7513559" /><rect
           style="fill:#aaccff;stroke-width:10.7455;stroke-linecap:round;stroke-linejoin:round"
           id="rect9"
           width="0.73183709"
           height="3.3802106"
           x="-2.4700174"
           y="-12.626154"
           transform="matrix(0.50003415,-0.86600568,-0.50003415,-0.86600568,0,0)"
           inkscape:transform-center-x="3.5872448"
           inkscape:transform-center-y="3.2899879" /><rect
           style="fill:#aaccff;stroke-width:10.7458;stroke-linecap:round;stroke-linejoin:round"
           id="rect10"
           width="0.73188704"
           height="3.3802106"
           x="6.7715545"
           y="-9.2437344"
           transform="matrix(1,0,0.50003415,-0.86600568,0,0)"
           inkscape:transform-center-x="4.6430952"
           inkscape:transform-center-y="-1.4613681" /><rect
           style="fill:#aaccff;stroke-width:10.7458;stroke-linecap:round;stroke-linejoin:round"
           id="rect11"
           width="0.73183709"
           height="3.3804414"
           x="3.3886724"
           y="3.3800263"
           transform="matrix(0.50003415,0.86600568,1,0,0,0)"
           inkscape:transform-center-x="1.0558503"
           inkscape:transform-center-y="-4.7513563" /><rect
           style="fill:#aaccff;stroke-width:10.7455;stroke-linecap:round;stroke-linejoin:round"
           id="rect12"
           width="0.73183709"
           height="3.3802106"
           x="-9.2348566"
           y="12.620905"
           transform="matrix(-0.50003415,0.86600568,0.50003415,0.86600568,0,0)"
           inkscape:transform-center-x="-3.5872443"
           inkscape:transform-center-y="-3.2899883" /></g><g
         id="g13"
         style="fill:#5599ff"
         inkscape:label="big"><rect
           style="fill:#5599ff;stroke-width:10.7458;stroke-linecap:round;stroke-linejoin:round"
           id="rect1"
           width="1.4637741"
           height="6.7604213"
           x="4.3938951"
           y="9.2384853"
           transform="matrix(1,0,0.50003415,0.86600568,0,0)"
           inkscape:transform-center-x="-3.435561"
           inkscape:transform-center-y="2.9278621" /><rect
           style="fill:#5599ff;stroke-width:10.7455;stroke-linecap:round;stroke-linejoin:round"
           id="rect2"
           width="1.4636742"
           height="6.7604213"
           x="13.63141"
           y="-3.3798754"
           transform="matrix(0.50003415,0.86600568,-0.50003415,0.86600568,0,0)"
           inkscape:transform-center-x="0.81805365"
           inkscape:transform-center-y="4.4389436" /><rect
           style="fill:#5599ff;stroke-width:10.7458;stroke-linecap:round;stroke-linejoin:round"
           id="rect3"
           width="1.4636742"
           height="6.7608829"
           x="10.250864"
           y="-12.618552"
           transform="matrix(-0.50003415,0.86600568,-1,0,0,0)"
           inkscape:transform-center-x="4.2536152"
           inkscape:transform-center-y="1.5110813" /><rect
           style="fill:#5599ff;stroke-width:10.7458;stroke-linecap:round;stroke-linejoin:round"
           id="rect4"
           width="1.4637741"
           height="6.7604213"
           x="-2.3676591"
           y="-9.2371445"
           transform="matrix(-1,0,-0.50003415,-0.86600568,0,0)"
           inkscape:transform-center-x="3.4355612"
           inkscape:transform-center-y="-2.9278623" /><rect
           style="fill:#5599ff;stroke-width:10.7455;stroke-linecap:round;stroke-linejoin:round"
           id="rect5"
           width="1.4636742"
           height="6.7604213"
           x="-11.605312"
           y="3.381217"
           transform="matrix(-0.50003415,-0.86600568,0.50003415,-0.86600568,0,0)"
           inkscape:transform-center-x="-0.81805343"
           inkscape:transform-center-y="-4.4389438" /><rect
           style="fill:#5599ff;stroke-width:10.7458;stroke-linecap:round;stroke-linejoin:round"
           id="rect6"
           width="1.4636742"
           height="6.7608829"
           x="-8.2247658"
           y="12.619894"
           transform="matrix(0.50003415,-0.86600568,1,0,0,0)"
           inkscape:transform-center-x="-4.2536147"
           inkscape:transform-center-y="-1.5110811" /></g></g><g
       id="g40"
       inkscape:label="osx"
       style="display:none"><path
         style="baseline-shift:baseline;display:inline;overflow:visible;opacity:1;vector-effect:none;fill:url(#linearGradient55);enable-background:accumulate;stop-color:#000000;stop-opacity:1"
         d="m 5.5031941,0 h 4.9936119 c 1.584619,0 2.376929,0 3.229816,0.26968094 v 0 C 14.657834,0.60861437 15.391386,1.3421658 15.730319,2.2733777 16,3.126265 16,3.9185747 16,5.5031939 v 4.9936121 c 0,1.584619 0,2.376929 -0.269681,3.229816 v 0 c -0.338933,0.931212 -1.072485,1.664764 -2.003697,2.003697 C 12.873735,16 12.081425,16 10.496806,16 H 5.5031941 C 3.9185747,16 3.126265,16 2.2733777,15.730319 v 0 C 1.3421658,15.391386 0.60861438,14.657834 0.26968094,13.726622 0,12.873735 0,12.081425 0,10.496806 V 5.5031941 C 0,3.9185747 0,3.126265 0.26968094,2.2733777 v 0 C 0.60861438,1.3421658 1.3421658,0.60861438 2.2733777,0.26968094 3.126265,0 3.9185747,0 5.5031941,0 Z"
         id="path26" /><path
         id="path27"
         style="baseline-shift:baseline;display:inline;overflow:visible;opacity:1;vector-effect:none;fill:url(#linearGradient57);enable-background:accumulate;stop-color:#000000;stop-opacity:1"
         d="M 5.5039062,0 C 3.9192869,0 3.1263248,-1.4969e-4 2.2734375,0.26953125 1.3422256,0.60846469 0.60846469,1.3422256 0.26953125,2.2734375 -1.4969e-4,3.1263248 0,3.9192868 0,5.5039062 v 4.9921878 c 0,1.584619 -1.4969e-4,2.377581 0.26953125,3.230468 0.33893344,0.931212 1.07269435,1.664974 2.00390625,2.003907 C 3.1263248,16.00015 3.9192868,16 5.5039062,16 h 4.9921878 c 1.584619,0 2.377582,1.5e-4 3.230468,-0.269531 0.931212,-0.338933 1.664974,-1.072694 2.003907,-2.003907 C 16.00015,12.873675 16,12.080713 16,10.496094 V 5.5039062 C 16,3.919287 16.00015,3.1263248 15.730469,2.2734375 15.391536,1.3422256 14.657775,0.60846468 13.726562,0.26953125 12.873675,-1.4969e-4 12.080713,0 10.496094,0 Z m 0,1 h 4.9921878 c 1.568784,0 2.224427,0.010966 2.90039,0.2207031 0.640849,0.2386008 1.144213,0.7419651 1.382813,1.3828125 C 14.989034,3.2794798 15,3.9351221 15,5.5039062 v 4.9921878 c 0,1.568784 -0.01097,2.224427 -0.220703,2.90039 -0.2386,0.640848 -0.741965,1.144213 -1.382813,1.382813 C 12.720521,14.989034 12.064878,15 10.496094,15 H 5.5039062 C 3.935122,15 3.2794798,14.989034 2.6035156,14.779297 1.9626682,14.540697 1.4593039,14.037333 1.2207031,13.396484 1.010966,12.720521 1,12.064878 1,10.496094 V 5.5039062 C 1,3.935122 1.0109659,3.2794798 1.2207031,2.6035156 1.4593038,1.9626676 1.9626676,1.4593038 2.6035156,1.2207031 3.2794798,1.0109659 3.9351219,1 5.5039062,1 Z" /><g
         id="g41"
         inkscape:label="flake"
         transform="matrix(0.8125,0,0,0.81249998,1.4999998,1.5000001)"
         style="stroke-width:1.23077"><g
           id="g33"
           style="fill:#aaccff;stroke-width:1.23077"
           inkscape:label="small"><path
             id="rect28"
             style="stroke-width:13.2256;stroke-linecap:round;stroke-linejoin:round"
             inkscape:transform-center-x="-4.6430942"
             inkscape:transform-center-y="1.4613677"
             transform="matrix(-1,0,-0.50003415,0.86600568,0,0)"
             d="m -18.248122,9.2384853 h 0.273679 a 0.22910415,0.22910415 45 0 1 0.229104,0.2291042 v 2.9220025 a 0.22910415,0.22910415 135 0 1 -0.229104,0.229104 h -0.273679 a 0.22910415,0.22910415 45 0 1 -0.229104,-0.229104 l 0,-2.9220025 a 0.22910415,0.22910415 135 0 1 0.229104,-0.2291042 z"
             inkscape:path-effect="#path-effect42"
             inkscape:original-d="m -18.477226,9.2384853 h 0.731887 v 3.3802107 h -0.731887 z" /><path
             id="rect29"
             style="stroke-width:13.2256;stroke-linecap:round;stroke-linejoin:round"
             inkscape:transform-center-x="-1.0558502"
             inkscape:transform-center-y="4.7513559"
             transform="matrix(-0.50003415,-0.86600568,-1,0,0,0)"
             d="m -14.864443,-3.3852751 h 0.273629 a 0.22910415,0.22910415 45 0 1 0.229104,0.2291041 l 0,2.92223315 a 0.22910415,0.22910415 135 0 1 -0.229104,0.22910415 h -0.273629 a 0.22910415,0.22910415 45 0 1 -0.229104,-0.22910415 V -3.156171 a 0.22910415,0.22910415 135 0 1 0.229104,-0.2291041 z"
             inkscape:path-effect="#path-effect43"
             inkscape:original-d="m -15.093547,-3.3852751 h 0.731837 v 3.3804414 h -0.731837 z" /><path
             id="rect30"
             style="stroke-width:13.2253;stroke-linecap:round;stroke-linejoin:round"
             inkscape:transform-center-x="3.5872448"
             inkscape:transform-center-y="3.2899879"
             transform="matrix(0.50003415,-0.86600568,-0.50003415,-0.86600568,0,0)"
             d="m -2.2469542,-12.626154 h 0.2857107 a 0.22306322,0.22306322 45 0 1 0.2230632,0.223063 l 0,2.9340845 a 0.22306322,0.22306322 135 0 1 -0.2230632,0.2230632 h -0.2857107 a 0.22306322,0.22306322 45 0 1 -0.2230632,-0.2230632 v -2.9340845 a 0.22306322,0.22306322 135 0 1 0.2230632,-0.223063 z"
             inkscape:path-effect="#path-effect44"
             inkscape:original-d="m -2.4700174,-12.626154 h 0.7318371 v 3.3802107 h -0.7318371 z" /><path
             id="rect31"
             style="stroke-width:13.2256;stroke-linecap:round;stroke-linejoin:round"
             inkscape:transform-center-x="4.6430952"
             inkscape:transform-center-y="-1.4613681"
             transform="matrix(1,0,0.50003415,-0.86600568,0,0)"
             d="m 7.0006586,-9.2437344 h 0.2736787 a 0.22910415,0.22910415 45 0 1 0.2291042,0.2291042 l 0,2.9220024 A 0.22910415,0.22910415 135 0 1 7.2743373,-5.8635237 H 7.0006586 A 0.22910415,0.22910415 45 0 1 6.7715545,-6.0926278 l 0,-2.9220025 a 0.22910415,0.22910415 135 0 1 0.2291041,-0.2291041 z"
             inkscape:path-effect="#path-effect45"
             inkscape:original-d="m 6.7715545,-9.2437344 h 0.731887 v 3.3802107 h -0.731887 z" /><path
             id="rect32"
             style="stroke-width:13.2256;stroke-linecap:round;stroke-linejoin:round"
             inkscape:transform-center-x="1.0558503"
             inkscape:transform-center-y="-4.7513563"
             transform="matrix(0.50003415,0.86600568,1,0,0,0)"
             d="M 3.6177766,3.3800263 H 3.8914052 A 0.22910415,0.22910415 45 0 1 4.1205094,3.6091305 V 6.5313636 A 0.22910415,0.22910415 135 0 1 3.8914052,6.7604678 H 3.6177765 A 0.22910415,0.22910415 45 0 1 3.3886724,6.5313636 l 0,-2.9222331 A 0.22910415,0.22910415 135 0 1 3.6177766,3.3800263 Z"
             inkscape:path-effect="#path-effect46"
             inkscape:original-d="m 3.3886724,3.3800263 h 0.731837 v 3.3804415 h -0.731837 z" /><path
             id="rect33"
             style="stroke-width:13.2253;stroke-linecap:round;stroke-linejoin:round"
             inkscape:transform-center-x="-3.5872443"
             inkscape:transform-center-y="-3.2899883"
             transform="matrix(-0.50003415,0.86600568,0.50003415,0.86600568,0,0)"
             d="m -9.0117934,12.620905 h 0.2857107 a 0.22306322,0.22306322 45 0 1 0.2230632,0.223063 v 2.934085 a 0.22306322,0.22306322 135 0 1 -0.2230632,0.223063 h -0.2857107 a 0.22306322,0.22306322 45 0 1 -0.2230632,-0.223063 v -2.934085 a 0.22306322,0.22306322 135 0 1 0.2230632,-0.223063 z"
             inkscape:original-d="m -9.2348566,12.620905 h 0.7318371 v 3.380211 h -0.7318371 z"
             inkscape:path-effect="#path-effect41" /></g><g
           id="g39"
           style="fill:#5599ff;stroke-width:1.23077"
           inkscape:label="big"><path
             id="rect34"
             style="stroke-width:13.2256;stroke-linecap:round;stroke-linejoin:round"
             inkscape:transform-center-x="-3.435561"
             inkscape:transform-center-y="2.9278621"
             transform="matrix(1,0,0.50003415,0.86600568,0,0)"
             d="M 4.8521034,9.2384853 H 5.3994609 A 0.4582083,0.4582083 45 0 1 5.8576692,9.6966936 V 15.540699 A 0.4582083,0.4582083 135 0 1 5.3994609,15.998907 H 4.8521034 A 0.4582083,0.4582083 45 0 1 4.3938951,15.540699 V 9.6966936 A 0.4582083,0.4582083 135 0 1 4.8521034,9.2384853 Z"
             inkscape:path-effect="#path-effect51"
             inkscape:original-d="M 4.3938951,9.2384853 H 5.8576692 V 15.998907 H 4.3938951 Z" /><path
             id="rect35"
             style="stroke-width:13.2253;stroke-linecap:round;stroke-linejoin:round"
             inkscape:transform-center-x="0.81805365"
             inkscape:transform-center-y="4.4389436"
             transform="matrix(0.50003415,0.86600568,-0.50003415,0.86600568,0,0)"
             d="m 14.077536,-3.3798754 h 0.571422 a 0.44612643,0.44612643 45 0 1 0.446126,0.4461264 V 2.9344195 A 0.44612643,0.44612643 135 0 1 14.648958,3.3805459 H 14.077536 A 0.44612643,0.44612643 45 0 1 13.63141,2.9344195 V -2.933749 a 0.44612643,0.44612643 135 0 1 0.446126,-0.4461264 z"
             inkscape:path-effect="#path-effect52"
             inkscape:original-d="m 13.63141,-3.3798754 h 1.463674 V 3.3805459 H 13.63141 Z" /><path
             id="rect36"
             style="stroke-width:13.2256;stroke-linecap:round;stroke-linejoin:round"
             inkscape:transform-center-x="4.2536152"
             inkscape:transform-center-y="1.5110813"
             transform="matrix(-0.50003415,0.86600568,-1,0,0,0)"
             d="m 10.709072,-12.618552 h 0.547258 a 0.4582083,0.4582083 45 0 1 0.458208,0.458208 v 5.8444663 a 0.4582083,0.4582083 135 0 1 -0.458208,0.4582083 h -0.547258 a 0.4582083,0.4582083 45 0 1 -0.458208,-0.4582083 v -5.8444663 a 0.4582083,0.4582083 135 0 1 0.458208,-0.458208 z"
             inkscape:path-effect="#path-effect53"
             inkscape:original-d="m 10.250864,-12.618552 h 1.463674 v 6.7608826 h -1.463674 z" /><path
             id="rect37"
             style="stroke-width:13.2256;stroke-linecap:round;stroke-linejoin:round"
             inkscape:transform-center-x="3.4355612"
             inkscape:transform-center-y="-2.9278623"
             transform="matrix(-1,0,-0.50003415,-0.86600568,0,0)"
             d="m -1.9094508,-9.2371445 h 0.5473575 a 0.4582083,0.4582083 45 0 1 0.45820829,0.4582083 v 5.8440047 a 0.4582083,0.4582083 135 0 1 -0.45820829,0.4582083 h -0.5473575 a 0.4582083,0.4582083 45 0 1 -0.4582083,-0.4582083 v -5.8440047 a 0.4582083,0.4582083 135 0 1 0.4582083,-0.4582083 z"
             inkscape:path-effect="#path-effect54"
             inkscape:original-d="m -2.3676591,-9.2371445 h 1.46377409 v 6.7604213 H -2.3676591 Z" /><path
             id="rect38"
             style="stroke-width:13.2253;stroke-linecap:round;stroke-linejoin:round"
             inkscape:transform-center-x="-0.81805343"
             inkscape:transform-center-y="-4.4389438"
             transform="matrix(-0.50003415,-0.86600568,0.50003415,-0.86600568,0,0)"
             d="m -11.159186,3.381217 h 0.571422 a 0.44612643,0.44612643 45 0 1 0.446126,0.4461264 v 5.8681682 a 0.44612643,0.44612643 135 0 1 -0.446126,0.4461264 h -0.571422 A 0.44612643,0.44612643 45 0 1 -11.605312,9.6955116 V 3.8273434 a 0.44612643,0.44612643 135 0 1 0.446126,-0.4461264 z"
             inkscape:path-effect="#path-effect47"
             inkscape:original-d="m -11.605312,3.381217 h 1.463674 v 6.760421 h -1.463674 z" /><path
             id="rect39"
             style="stroke-width:13.2256;stroke-linecap:round;stroke-linejoin:round;stroke-dasharray:none"
             inkscape:transform-center-x="-4.2536147"
             inkscape:transform-center-y="-1.5110811"
             transform="matrix(0.50003415,-0.86600568,1,0,0,0)"
             d="m -7.7665575,12.619894 h 0.5472576 a 0.4582083,0.4582083 45 0 1 0.4582083,0.458208 v 5.844467 a 0.4582083,0.4582083 135 0 1 -0.4582083,0.458208 h -0.5472576 a 0.4582083,0.4582083 45 0 1 -0.4582083,-0.458208 v -5.844467 a 0.4582083,0.4582083 135 0 1 0.4582083,-0.458208 z"
             inkscape:path-effect="#path-effect50"
             inkscape:original-d="m -8.2247658,12.619894 h 1.4636742 v 6.760883 h -1.4636742 z" /></g></g></g></g></svg>
